<svg width="147" height="179" viewBox="0 0 147 179" fill="none" xmlns="http://www.w3.org/2000/svg">
<rect width="122.759" height="161.118" transform="matrix(0.986674 -0.162706 0.160608 0.987018 0 19.9746)" fill="#ECDABB"/>
<rect width="117.675" height="159.432" transform="matrix(0.99971 0.0240723 -0.0237537 0.999718 10.865 13.2539)" fill="#FFEBF3"/>
<rect width="81.3796" height="116.243" transform="matrix(0.964491 -0.264114 0.260856 0.965378 0.113281 55.6523)" fill="#DBF1C7"/>
<rect width="100.245" height="69.8113" transform="matrix(0.991983 0.126373 -0.124726 0.992191 24.7922 55.2637)" fill="white"/>
<path d="M42.0478 82.408C41.7598 83.112 41.4238 83.8 41.0558 84.44C42.0798 85.288 43.1998 86.312 43.9998 87.176C44.1438 87.336 44.0478 87.464 43.9998 87.56C43.9038 87.704 43.7118 87.896 43.5038 87.992C43.3758 88.072 43.2798 88.088 43.1198 87.896C42.4478 87.192 41.4078 86.168 40.4958 85.368C39.5198 86.84 38.3358 88.136 37.0878 89.096C36.8958 89.24 36.7518 89.288 36.5438 89.256C36.3518 89.224 36.2398 89.144 36.0958 89.064C35.9518 88.984 35.9998 88.824 36.1118 88.728C36.7038 88.232 37.2798 87.64 37.8238 87.016C37.2638 86.408 36.5118 85.624 35.9038 85.08C35.1518 86.104 34.3358 86.984 33.5678 87.592C33.3758 87.736 33.2478 87.816 33.0398 87.816C32.8798 87.816 32.6878 87.672 32.5758 87.576C32.4478 87.464 32.4478 87.352 32.5918 87.24C33.9358 86.088 35.1998 84.44 35.9038 82.936C35.9998 82.728 36.0158 82.552 35.8718 82.392C35.7278 82.216 35.5518 82.104 35.3438 81.96C35.2638 81.912 35.2478 81.848 35.2638 81.784C35.2958 81.624 35.3918 81.448 35.5198 81.352C35.5518 81.32 35.6478 81.336 35.7438 81.352C36.3038 81.544 36.7678 81.8 37.2478 82.232C37.3918 82.376 37.4398 82.616 37.3278 82.824C37.0718 83.304 36.7998 83.752 36.5118 84.2C37.1678 84.76 37.9358 85.496 38.5438 86.136C39.4558 84.952 40.2078 83.704 40.6238 82.6C40.7038 82.392 40.7198 82.216 40.5758 82.04C40.3998 81.864 40.2078 81.736 39.9998 81.608C39.9198 81.56 39.9038 81.496 39.9198 81.432C39.9358 81.272 40.0478 81.096 40.1438 80.968C40.1918 80.968 40.2718 80.952 40.3678 80.968C40.9278 81.128 41.4238 81.4 41.9358 81.816C42.1118 81.944 42.1278 82.2 42.0478 82.408ZM33.8078 92.168C33.5198 92.168 33.2478 92.232 32.9758 92.28C32.7198 92.328 32.4638 92.344 32.2398 92.344C32.0798 92.344 31.9678 92.296 31.8878 92.184C31.6958 91.912 31.5838 91.56 31.5038 91.192C31.4718 91.08 31.5518 91.016 31.6958 91.032C32.1118 91.096 32.6398 91.128 33.1998 91.128H42.8958C43.1838 91.128 43.4878 91.064 43.7598 91.016C44.0318 90.968 44.3038 90.952 44.5438 90.952C44.7038 90.952 44.8318 90.984 44.9118 91.112C45.1038 91.416 45.2478 91.784 45.3278 92.104C45.3598 92.216 45.2798 92.28 45.1358 92.264C44.6878 92.2 44.1438 92.168 43.5518 92.168H33.8078ZM48.2141 92.248C47.9261 92.248 47.6541 92.312 47.3821 92.36C47.1261 92.408 46.8701 92.424 46.6461 92.424C46.4861 92.424 46.3741 92.376 46.2941 92.264C46.1021 91.992 45.9901 91.64 45.9101 91.272C45.8781 91.16 45.9581 91.096 46.1021 91.112C46.5181 91.176 47.0461 91.208 47.6061 91.208H51.4301V87.688C51.4301 87.528 51.4141 87.32 51.2381 87.208C51.0301 87.08 50.8221 86.984 50.6141 86.936C50.5181 86.92 50.4381 86.888 50.4381 86.808C50.4381 86.632 50.4861 86.44 50.5501 86.264C50.5821 86.232 50.6301 86.184 50.7421 86.184C51.3661 86.168 52.0061 86.248 52.5981 86.408C52.7261 86.44 52.7581 86.584 52.7421 86.728C52.6781 87.192 52.6301 87.736 52.6301 88.28V91.208H57.3021C57.5901 91.208 57.8941 91.144 58.1661 91.096C58.4381 91.048 58.7101 91.032 58.9501 91.032C59.1101 91.032 59.2381 91.064 59.3181 91.192C59.5101 91.496 59.6541 91.864 59.7341 92.184C59.7661 92.296 59.6861 92.36 59.5421 92.344C59.0941 92.28 58.5501 92.248 57.9581 92.248H48.2141ZM57.1421 82.552C57.0621 84.984 56.6941 87 56.1341 88.696C56.0701 88.904 55.9741 89.016 55.7981 89.096C55.6061 89.176 55.3981 89.192 55.2221 89.192C55.0621 89.192 55.0141 89.032 55.0621 88.856C55.4941 87.032 55.7981 84.632 55.7661 82.888H50.3101C50.0221 82.888 49.7501 82.936 49.4781 82.984C49.2221 83.032 48.9661 83.032 48.7421 83.032C48.5821 83.032 48.4861 82.968 48.3901 82.872C48.1661 82.616 48.0061 82.424 47.9421 81.96C47.9261 81.848 47.9901 81.8 48.1341 81.816C48.5501 81.88 48.9501 81.88 49.4301 81.88H55.2061C55.4301 81.88 55.6861 81.816 55.8461 81.704C55.9741 81.624 56.1821 81.624 56.3581 81.704C56.5981 81.816 56.8541 81.992 57.0781 82.216C57.1741 82.312 57.1421 82.424 57.1421 82.552ZM72.733 84.28C72.733 86.04 71.421 87.624 69.245 87.624C67.069 87.624 65.757 86.04 65.757 84.28C65.757 82.52 67.069 80.936 69.245 80.936C71.421 80.936 72.733 82.52 72.733 84.28ZM75.725 89.864C75.517 90.232 75.325 90.584 75.117 90.92C76.061 91.64 77.037 92.632 77.741 93.464C77.885 93.624 77.805 93.768 77.757 93.848C77.661 93.992 77.501 94.152 77.293 94.296C77.181 94.36 77.069 94.36 76.893 94.168C76.333 93.512 75.373 92.584 74.525 91.832C73.757 92.936 72.957 93.816 72.173 94.52C71.965 94.696 71.853 94.76 71.645 94.76C71.453 94.76 71.293 94.648 71.197 94.584C71.053 94.472 71.053 94.376 71.181 94.248C71.437 93.976 71.693 93.688 71.949 93.384C71.373 92.808 70.717 92.216 70.109 91.736C69.325 92.776 68.557 93.624 67.789 94.216C67.565 94.392 67.469 94.424 67.261 94.376C67.101 94.344 66.957 94.232 66.861 94.136C66.749 94.04 66.717 93.928 66.861 93.8C67.965 92.792 69.101 91.32 69.789 90.216C69.917 90.008 69.997 89.928 69.869 89.768C69.709 89.656 69.501 89.528 69.325 89.48C69.229 89.448 69.229 89.384 69.245 89.304C69.261 89.144 69.357 88.952 69.485 88.824C69.517 88.792 69.613 88.808 69.709 88.824C70.205 88.92 70.765 89.16 71.197 89.496C71.341 89.64 71.341 89.96 71.213 90.152L70.685 90.936C71.341 91.384 72.013 91.944 72.653 92.536C73.293 91.704 73.885 90.808 74.301 89.992C74.413 89.784 74.493 89.688 74.349 89.544C74.189 89.432 73.981 89.32 73.805 89.272C73.709 89.24 73.709 89.176 73.709 89.096C73.725 88.936 73.805 88.744 73.933 88.616C73.965 88.584 74.061 88.584 74.157 88.6C74.653 88.68 75.245 88.888 75.693 89.208C75.837 89.352 75.837 89.656 75.725 89.864ZM71.533 84.28C71.533 83.112 70.685 81.976 69.245 81.976C67.805 81.976 66.957 83.112 66.957 84.28C66.957 85.448 67.805 86.584 69.245 86.584C70.685 86.584 71.533 85.448 71.533 84.28ZM75.453 81.768C75.453 81.448 75.405 81.208 75.181 81.032C74.861 80.776 74.557 80.6 74.189 80.424C74.109 80.392 74.061 80.344 74.077 80.264C74.125 80.088 74.205 79.912 74.317 79.768C74.349 79.72 74.445 79.704 74.525 79.72C75.229 79.896 75.997 80.168 76.621 80.536C76.749 80.616 76.781 80.712 76.765 80.856C76.733 81.32 76.653 81.864 76.653 82.408V87.592C76.653 87.752 76.621 87.864 76.493 87.944C76.269 88.104 75.981 88.248 75.709 88.248C75.517 88.248 75.453 88.184 75.453 87.992V81.768ZM81.6672 88.408C81.3792 88.408 81.1072 88.472 80.8352 88.52C80.5792 88.568 80.3232 88.584 80.0992 88.584C79.9392 88.584 79.8272 88.536 79.7472 88.424C79.5552 88.152 79.4432 87.8 79.3632 87.432C79.3312 87.32 79.4112 87.256 79.5552 87.272C79.9712 87.336 80.4992 87.368 81.0592 87.368H90.7552C91.0432 87.368 91.3472 87.304 91.6192 87.256C91.8912 87.208 92.1632 87.192 92.4032 87.192C92.5632 87.192 92.6912 87.224 92.7712 87.352C92.9632 87.656 93.1072 88.024 93.1872 88.344C93.2192 88.456 93.1392 88.52 92.9952 88.504C92.5472 88.44 92.0032 88.408 91.4112 88.408H81.6672ZM88.2592 84.504C88.5472 84.504 88.8512 84.44 89.1232 84.392C89.3952 84.344 89.6672 84.328 89.9072 84.328C90.0672 84.328 90.1952 84.36 90.2752 84.488C90.4352 84.76 90.5952 85.176 90.6432 85.48C90.6592 85.592 90.5952 85.656 90.4512 85.64C90.0032 85.576 89.4592 85.544 88.8672 85.544H84.0672C83.7952 85.544 83.5232 85.544 83.3152 85.448C82.9472 85.272 82.6912 85.064 82.4672 84.776C82.3552 84.632 82.2752 84.44 82.2752 84.232V82.36C82.2752 82.04 82.2432 81.752 82.0352 81.608C81.7792 81.432 81.5072 81.336 81.2192 81.256C81.1392 81.24 81.0912 81.208 81.0912 81.128C81.0912 80.984 81.1232 80.824 81.1872 80.696C81.2192 80.632 81.2992 80.6 81.3952 80.6C82.0192 80.616 82.7552 80.696 83.4432 80.936C83.5712 80.984 83.6032 81.112 83.5872 81.256C83.5232 81.88 83.4752 82.616 83.4752 83.368V84.184C83.4752 84.44 83.5712 84.504 83.8112 84.504H88.2592ZM82.5952 92.808V91.432C82.5952 91.112 82.5632 90.824 82.3552 90.68C82.0992 90.504 81.8272 90.408 81.5392 90.328C81.4592 90.312 81.4112 90.28 81.4112 90.2C81.4112 90.056 81.4432 89.896 81.5072 89.768C81.5392 89.704 81.6192 89.672 81.7152 89.672C82.3392 89.688 83.0752 89.768 83.7632 90.008C83.8912 90.056 83.9232 90.184 83.9072 90.328C83.8432 90.952 83.7952 91.528 83.7952 92.28V92.648C83.7952 92.904 83.8912 92.968 84.1312 92.968H88.7392C89.0272 92.968 89.3312 92.904 89.6032 92.856C89.8752 92.808 90.1472 92.792 90.3872 92.792C90.5472 92.792 90.6752 92.824 90.7552 92.952C90.9152 93.224 91.0752 93.64 91.1232 93.944C91.1392 94.056 91.0752 94.12 90.9312 94.104C90.4832 94.04 89.9392 94.008 89.3472 94.008H84.2752C84.0032 94.008 83.6992 93.976 83.4912 93.912C83.1872 93.816 82.9152 93.624 82.7712 93.384C82.6752 93.224 82.5952 93.016 82.5952 92.808ZM104.57 82.808C104.346 83.8 104.058 84.696 103.69 85.512C104.874 86.696 106.09 88.168 106.938 89.576C107.05 89.752 106.922 89.88 106.842 89.976C106.714 90.104 106.41 90.264 106.25 90.312C106.074 90.392 105.978 90.328 105.866 90.12C105.178 88.92 104.218 87.672 103.178 86.504C102.33 88.04 101.242 89.288 100.058 90.472C99.8661 90.648 99.7541 90.68 99.5461 90.696C99.3541 90.664 99.2101 90.616 99.0501 90.536C98.9221 90.488 98.9221 90.296 99.0341 90.184C100.762 88.296 102.586 85.8 103.178 83.224C103.242 82.968 103.194 82.792 103.018 82.648C102.826 82.488 102.57 82.344 102.346 82.264C102.266 82.232 102.234 82.168 102.234 82.104C102.234 81.944 102.33 81.768 102.426 81.624C102.458 81.576 102.538 81.56 102.634 81.576C103.21 81.672 103.802 81.896 104.378 82.232C104.57 82.344 104.618 82.6 104.57 82.808ZM109.194 81.768C109.194 81.448 109.146 81.208 108.922 81.032C108.602 80.776 108.298 80.6 107.93 80.424C107.85 80.392 107.802 80.344 107.818 80.264C107.866 80.088 107.946 79.912 108.058 79.768C108.09 79.72 108.186 79.704 108.266 79.72C108.97 79.896 109.738 80.168 110.362 80.536C110.49 80.616 110.522 80.712 110.506 80.856C110.474 81.32 110.394 81.864 110.394 82.408V93.592C110.394 93.752 110.362 93.864 110.234 93.944C110.01 94.104 109.722 94.248 109.45 94.248C109.258 94.248 109.194 94.184 109.194 93.992V81.768ZM45.3852 106.912C45.3852 108.944 43.9132 110.608 41.6252 110.608C39.3372 110.608 37.8652 108.944 37.8652 106.912C37.8652 104.88 39.3372 103.216 41.6252 103.216C43.9132 103.216 45.3852 104.88 45.3852 106.912ZM44.1852 106.912C44.1852 105.536 43.1932 104.256 41.6252 104.256C40.0572 104.256 39.0652 105.536 39.0652 106.912C39.0652 108.288 40.0572 109.568 41.6252 109.568C43.1932 109.568 44.1852 108.288 44.1852 106.912ZM48.9372 114.592C48.9372 114.752 48.9052 114.864 48.7772 114.944C48.5532 115.104 48.2652 115.248 47.9932 115.248C47.8012 115.248 47.7372 115.184 47.7372 114.992V102.768C47.7372 102.448 47.6892 102.208 47.4652 102.032C47.1452 101.776 46.8412 101.6 46.4732 101.424C46.3932 101.392 46.3452 101.344 46.3612 101.264C46.4092 101.088 46.4892 100.912 46.6012 100.768C46.6332 100.72 46.7292 100.704 46.8092 100.72C47.5132 100.896 48.2812 101.168 48.9052 101.536C49.0332 101.616 49.0652 101.712 49.0492 101.856C49.0172 102.32 48.9372 102.864 48.9372 103.408V114.592ZM59.5995 106.912C59.5995 108.944 58.2235 110.608 55.9355 110.608C53.6475 110.608 52.2715 108.944 52.2715 106.912C52.2715 104.88 53.6475 103.216 55.9355 103.216C57.9355 103.216 59.2475 104.496 59.5355 106.176H59.6315C60.0475 106.24 60.5435 106.272 61.1035 106.272H62.3035V102.768C62.3035 102.448 62.2555 102.208 62.0315 102.032C61.7115 101.776 61.4075 101.6 61.0395 101.424C60.9595 101.392 60.9115 101.344 60.9275 101.264C60.9755 101.088 61.0555 100.912 61.1675 100.768C61.1995 100.72 61.2955 100.704 61.3755 100.72C62.0795 100.896 62.8475 101.168 63.4715 101.536C63.5995 101.616 63.6315 101.712 63.6155 101.856C63.5835 102.32 63.5035 102.864 63.5035 103.408V114.592C63.5035 114.752 63.4715 114.864 63.3435 114.944C63.1195 115.104 62.8315 115.248 62.5595 115.248C62.3675 115.248 62.3035 115.184 62.3035 114.992V107.296H61.7755C61.4875 107.296 61.1995 107.36 60.9275 107.408C60.6715 107.456 60.3995 107.472 60.1755 107.472C60.0155 107.472 59.9035 107.424 59.8235 107.312C59.7435 107.2 59.6635 107.056 59.5995 106.912ZM58.3995 106.912C58.3995 105.536 57.5035 104.256 55.9355 104.256C54.3675 104.256 53.4715 105.536 53.4715 106.912C53.4715 108.288 54.3675 109.568 55.9355 109.568C57.5035 109.568 58.3995 108.288 58.3995 106.912ZM76.4697 103.408C76.1817 104.112 75.8457 104.8 75.4777 105.44C76.5017 106.288 77.6217 107.312 78.4217 108.176C78.5657 108.336 78.4697 108.464 78.4217 108.56C78.3257 108.704 78.1337 108.896 77.9257 108.992C77.7977 109.072 77.7017 109.088 77.5417 108.896C76.8697 108.192 75.8297 107.168 74.9177 106.368C73.9417 107.84 72.7577 109.136 71.5097 110.096C71.3177 110.24 71.1737 110.288 70.9657 110.256C70.7737 110.224 70.6617 110.144 70.5177 110.064C70.3737 109.984 70.4217 109.824 70.5337 109.728C71.1257 109.232 71.7017 108.64 72.2457 108.016C71.6857 107.408 70.9337 106.624 70.3257 106.08C69.5737 107.104 68.7577 107.984 67.9897 108.592C67.7977 108.736 67.6697 108.816 67.4617 108.816C67.3017 108.816 67.1097 108.672 66.9977 108.576C66.8697 108.464 66.8697 108.352 67.0137 108.24C68.3577 107.088 69.6217 105.44 70.3257 103.936C70.4217 103.728 70.4377 103.552 70.2937 103.392C70.1497 103.216 69.9737 103.104 69.7657 102.96C69.6857 102.912 69.6697 102.848 69.6857 102.784C69.7177 102.624 69.8137 102.448 69.9417 102.352C69.9737 102.32 70.0697 102.336 70.1657 102.352C70.7257 102.544 71.1897 102.8 71.6697 103.232C71.8137 103.376 71.8617 103.616 71.7497 103.824C71.4937 104.304 71.2217 104.752 70.9337 105.2C71.5897 105.76 72.3577 106.496 72.9657 107.136C73.8777 105.952 74.6297 104.704 75.0457 103.6C75.1257 103.392 75.1417 103.216 74.9977 103.04C74.8217 102.864 74.6297 102.736 74.4217 102.608C74.3417 102.56 74.3257 102.496 74.3417 102.432C74.3577 102.272 74.4697 102.096 74.5657 101.968C74.6137 101.968 74.6937 101.952 74.7897 101.968C75.3497 102.128 75.8457 102.4 76.3577 102.816C76.5337 102.944 76.5497 103.2 76.4697 103.408ZM68.2297 113.168C67.9417 113.168 67.6697 113.232 67.3977 113.28C67.1417 113.328 66.8857 113.344 66.6617 113.344C66.5017 113.344 66.3897 113.296 66.3097 113.184C66.1177 112.912 66.0057 112.56 65.9257 112.192C65.8937 112.08 65.9737 112.016 66.1177 112.032C66.5337 112.096 67.0617 112.128 67.6217 112.128H77.3177C77.6057 112.128 77.9097 112.064 78.1817 112.016C78.4537 111.968 78.7257 111.952 78.9657 111.952C79.1257 111.952 79.2537 111.984 79.3337 112.112C79.5257 112.416 79.6697 112.784 79.7497 113.104C79.7817 113.216 79.7017 113.28 79.5577 113.264C79.1097 113.2 78.5657 113.168 77.9737 113.168H68.2297ZM90.956 102.768C90.956 102.448 90.908 102.208 90.684 102.032C90.364 101.776 90.06 101.6 89.692 101.424C89.612 101.392 89.564 101.344 89.58 101.264C89.628 101.088 89.708 100.912 89.82 100.768C89.852 100.72 89.948 100.704 90.028 100.72C90.732 100.896 91.5 101.168 92.124 101.536C92.252 101.616 92.284 101.712 92.268 101.856C92.236 102.32 92.156 102.864 92.156 103.408V114.592C92.156 114.752 92.124 114.864 91.996 114.944C91.772 115.104 91.484 115.248 91.212 115.248C91.02 115.248 90.956 115.184 90.956 114.992V102.768ZM88.268 104C87.116 107.344 84.684 109.984 82.46 111.568C82.284 111.68 82.108 111.776 81.948 111.68C81.74 111.632 81.564 111.504 81.404 111.392C81.276 111.296 81.324 111.12 81.452 111.04C83.564 109.392 85.756 107.072 86.78 104.368H83.836C83.548 104.368 83.276 104.416 83.004 104.448C82.748 104.48 82.492 104.512 82.268 104.512C82.108 104.512 82.012 104.448 81.916 104.352C81.692 104.096 81.548 103.824 81.468 103.408C81.452 103.296 81.516 103.248 81.66 103.264C82.076 103.328 82.476 103.328 82.956 103.328H86.412C86.636 103.328 86.892 103.264 87.052 103.152C87.18 103.072 87.308 103.072 87.484 103.152C87.724 103.264 87.98 103.44 88.204 103.664C88.3 103.76 88.316 103.872 88.268 104ZM97.6022 113.616C97.6022 114.24 97.1542 114.688 96.5302 114.688C95.9062 114.688 95.4582 114.24 95.4582 113.616C95.4582 112.992 95.9062 112.544 96.5302 112.544C97.1542 112.544 97.6022 112.992 97.6022 113.616ZM101.758 113.616C101.758 114.24 101.31 114.688 100.686 114.688C100.062 114.688 99.6145 114.24 99.6145 113.616C99.6145 112.992 100.062 112.544 100.686 112.544C101.31 112.544 101.758 112.992 101.758 113.616ZM105.915 113.616C105.915 114.24 105.467 114.688 104.843 114.688C104.219 114.688 103.771 114.24 103.771 113.616C103.771 112.992 104.219 112.544 104.843 112.544C105.467 112.544 105.915 112.992 105.915 113.616Z" fill="#757575"/>
</svg>
