<svg width="33" height="33" viewBox="0 0 33 33" fill="none" xmlns="http://www.w3.org/2000/svg">
<path d="M6.30163 23.8176C4.88538 22.3133 4.125 20.6262 4.125 17.8913C4.125 13.0788 7.50337 8.76544 12.4162 6.63281L13.6441 8.52756C9.0585 11.0081 8.162 14.2269 7.8045 16.2564C8.54288 15.8742 9.5095 15.7408 10.4569 15.8288C12.9374 16.0584 14.8926 18.0948 14.8926 20.6262C14.8926 21.9025 14.3856 23.1266 13.4831 24.0291C12.5806 24.9317 11.3565 25.4387 10.0801 25.4387C9.37427 25.4326 8.67668 25.2861 8.02798 25.0078C7.37928 24.7295 6.79243 24.3249 6.30163 23.8176ZM20.0516 23.8176C18.6354 22.3133 17.875 20.6262 17.875 17.8913C17.875 13.0788 21.2534 8.76544 26.1663 6.63281L27.3941 8.52756C22.8085 11.0081 21.912 14.2269 21.5545 16.2564C22.2929 15.8742 23.2595 15.7408 24.2069 15.8288C26.6874 16.0584 28.6426 18.0948 28.6426 20.6262C28.6426 21.9025 28.1356 23.1266 27.2331 24.0291C26.3306 24.9317 25.1065 25.4387 23.8301 25.4387C23.1243 25.4326 22.4267 25.2861 21.778 25.0078C21.1293 24.7295 20.5424 24.3249 20.0516 23.8176Z" fill="black"/>
</svg>
