<svg width="33" height="33" viewBox="0 0 33 33" fill="none" xmlns="http://www.w3.org/2000/svg">
<path d="M26.698 9.18362C28.1143 10.6879 28.8746 12.375 28.8746 15.1099C28.8746 19.9224 25.4976 24.2358 20.5834 26.3684L19.3555 24.4736C23.9411 21.9931 24.8377 18.7743 25.1965 16.7448C24.4581 17.127 23.4915 17.2604 22.5428 17.1724C20.0623 16.9427 18.107 14.9064 18.107 12.375C18.107 11.0986 18.6141 9.87457 19.5166 8.97205C20.4191 8.06953 21.6432 7.5625 22.9195 7.5625C24.3949 7.5625 25.807 8.23625 26.698 9.18362ZM12.948 9.18362C14.3643 10.6879 15.1246 12.375 15.1246 15.1099C15.1246 19.9224 11.7476 24.2358 6.8334 26.3684L5.60552 24.4736C10.1911 21.9931 11.0876 18.7743 11.4451 16.7448C10.7068 17.127 9.74015 17.2604 8.79277 17.1724C6.31227 16.9441 4.3584 14.9078 4.3584 12.375C4.3584 11.0986 4.86543 9.87457 5.76795 8.97205C6.67047 8.06953 7.89454 7.5625 9.1709 7.5625C10.6463 7.5625 12.0584 8.23625 12.9494 9.18362" fill="black"/>
</svg>
